<?xml version="1.0" encoding="UTF-8" standalone="no"?>
<svg
   viewBox="0 0 37.986165 31.898637"
   width="344.53885"
   height="289.21832"
   version="1.1"
   id="svg27"
   sodipodi:docname="ORL.svg"
   inkscape:version="1.4.2 (f4327f4, 2025-05-13)"
   xmlns:inkscape="http://www.inkscape.org/namespaces/inkscape"
   xmlns:sodipodi="http://sodipodi.sourceforge.net/DTD/sodipodi-0.dtd"
   xmlns="http://www.w3.org/2000/svg"
   xmlns:svg="http://www.w3.org/2000/svg">
  <sodipodi:namedview
     id="namedview27"
     pagecolor="#ffffff"
     bordercolor="#000000"
     borderopacity="0.25"
     inkscape:showpageshadow="2"
     inkscape:pageopacity="0.0"
     inkscape:pagecheckerboard="0"
     inkscape:deskcolor="#d1d1d1"
     inkscape:zoom="1.0370051"
     inkscape:cx="152.84399"
     inkscape:cy="191.4166"
     inkscape:window-width="1920"
     inkscape:window-height="1111"
     inkscape:window-x="-9"
     inkscape:window-y="1341"
     inkscape:window-maximized="1"
     inkscape:current-layer="svg27" />
  <defs
     id="defs1">
    <style
       id="style1">.cls-1{fill:#061922;}.cls-2{fill:#0050b5;}.cls-3{fill:#fff;}</style>
  </defs>
  <title
     id="title1">Orlando Magic logo</title>
  <path
     class="cls-1"
     d="M 22.053539,6.6e-4 A 15.936,15.936 0 0 0 8.2428393,8.0268 h -4.12917 l 2.79387,2.6675 -2.72328,4.2051 h -3.16667 l 2.66462,2.5436 -3.68917001,5.6971 5.63667001,-3.3257 1.30623,1.247 A 15.94932,15.94932 0 1 0 22.053539,0"
     id="path1" />
  <path
     class="cls-2"
     d="M 10.897639,9.093 V 6.4832 L 9.2080393,9.093 h -2.4429 l 1.5101,1.4417 -1.8605,2.8727 3.0097,-1.7761 1.4731997,1.4059 v -2.2747 l 2.8288,-1.6695 z"
     id="path2" />
  <path
     class="cls-2"
     d="m 7.4564393,15.9642 v -2.3999 l -1.55361,2.3999 h -2.2325 l 1.38014,1.3172 -1.71858,2.6542 2.78075,-1.6403 1.3438,1.2834 v -2.0768 l 2.6065997,-1.5377 z"
     id="path3" />
  <path
     class="cls-2"
     d="m 22.022439,7.0547 a 8.14124,8.14124 0 0 0 -3.3744,0.7225 l -0.1366,0.0615 V 5.0163 l -2.0412,3.1536 h -2.9569 l 1.8275,1.7443 -0.762,1.1754 V 9.9671 l -2.313,3.5727 H 8.8366393 l 2.1196997,2.0231 -2.4976997,3.8575 4.0407997,-2.384 0.7903,0.7543 0.0066,0.0298 c 0.0521,0.2536 0.1102,0.4854 0.1755,0.7099 l 0.0369,0.1251 h -2.4726 l 1.8129,1.696 -2.1751,3.4144 3.672,-2.086 a 0.29468,0.29468 0 0 1 0.1458,-0.0417 0.44862,0.44862 0 0 1 0.2698,0.1284 c 0.0106,0.0087 0.1016,0.0841 0.2125,0.1749 0.1728,0.1424 0.3918,0.3231 0.4209,0.3463 a 14.064,14.064 0 0 0 3.5209,2.1013 8.94074,8.94074 0 1 0 3.1053,-17.3351"
     id="path4" />
  <path
     class="cls-3"
     d="m 10.417939,10.487 1.5471,-0.9132 h -1.5471 V 8.1069 L 9.4686393,9.5738 h -1.5042 l 0.9296,0.8874 -0.9692,1.4966 1.5682,-0.9251 0.9248997,0.8834 z"
     id="path5" />
  <path
     class="cls-3"
     d="m 6.9953393,15.1259 -0.8418,1.3012 h -1.32935 l 0.82135,0.7841 -0.86094,1.3304 1.394,-0.8225 0.8167,0.7808 V 17.237 l 1.3735,-0.8099 h -1.37346 z"
     id="path6" />
  <path
     class="cls-3"
     d="m 22.022439,7.646 a 8.30173,8.30173 0 0 0 -4.0955,1.0821 V 6.9937 l -1.14,1.7609 h -1.8116 l 1.1195,1.0688 -1.167,1.8039 0.004,-0.0026 a 8.27938,8.27938 0 0 0 -0.8755,1.9522 v -1.8423 l -1.5068,2.3284 h -2.4054 l 1.4864,1.4191 -1.5259,2.3582 2.47,-1.4575 1.2811,1.2231 a 8.33991,8.33991 0 0 0 0.3939,1.3774 l -0.1445,0.2669 h -1.5596 l 1.0741,1.0046 -1.2166,1.8794 1.6421,-0.9689 a 0.90136,0.90136 0 0 1 1.0872,0.1332 c 0.0139,0.0106 0.0396,0.0337 0.0785,0.0668 a 13.05416,13.05416 0 0 0 3.8686,2.4516 8.349,8.349 0 1 0 2.9437,-16.1715"
     id="path7" />
  <path
     class="cls-2"
     d="m 26.040239,13.2412 a 6.28057,6.28057 0 0 0 -4.0415,-4.4853 3.94993,3.94993 0 0 0 -2.3803,0.0788 7.525,7.525 0 0 0 -3.162,2.0715 4.02515,4.02515 0 0 1 2.0497,-0.5695 c 3.0552,0 5.2237,2.6594 7.5341,2.9051"
     id="path8" />
  <path
     class="cls-2"
     d="m 26.845039,13.2299 c 1.1334,-0.1715 1.6322,-0.9807 1.2383,-1.7178 a 7.51754,7.51754 0 0 0 -5.3266,-3.0363 6.60693,6.60693 0 0 1 4.0877,4.7535"
     id="path9" />
  <path
     class="cls-2"
     d="m 26.235439,17.9205 a 10.37647,10.37647 0 0 0 0.165,-1.5404 c -4.4538,-0.0689 -10.9217,-0.2265 -10.9217,-0.2265 v -0.2913 c 0,0 6.4679,-0.1577 10.9217,-0.2265 a 10.37647,10.37647 0 0 0 -0.165,-1.5404 c -2.906,-0.1695 -5.0218,-3.0694 -8.0222,-3.0694 a 3.4187,3.4187 0 0 0 -3.2405,2.3072 7.6022,7.6022 0 0 0 0.0092,5.3607 3.39633,3.39633 0 0 0 3.2313,2.296 c 3.0004,0 5.1162,-2.9006 8.0222,-3.0694 z"
     id="path10" />
  <path
     class="cls-2"
     d="m 27.208539,15.6239 c 0.9428,-0.0133 1.7503,-0.0199 2.3348,-0.0193 a 7.49337,7.49337 0 0 0 -0.83,-3.0687 c 0.0152,0.7463 -0.5766,1.3801 -1.675,1.5364 a 10.38785,10.38785 0 0 1 0.1702,1.5516 z"
     id="path11" />
  <path
     class="cls-2"
     d="m 26.040239,18.7747 c -2.3111,0.2457 -4.4789,2.9052 -7.5341,2.9052 a 4.03413,4.03413 0 0 1 -2.0181,-0.5516 c 0.1458,0.1582 0.2969,0.3125 0.4559,0.4582 a 7.50979,7.50979 0 0 0 2.8869,1.6503 3.74459,3.74459 0 0 0 2.067,0.0523 6.25155,6.25155 0 0 0 4.1424,-4.5137"
     id="path12" />
  <path
     class="cls-2"
     d="m 26.845039,18.786 a 6.633,6.633 0 0 1 -4.0329,4.7349 7.51681,7.51681 0 0 0 5.2903,-3.0582 c 0.3543,-0.7264 -0.1458,-1.5085 -1.258,-1.6767"
     id="path13" />
  <path
     class="cls-2"
     d="m 29.543339,16.4112 c -0.5839,7e-4 -1.3927,-0.0066 -2.3348,-0.0192 a 10.55857,10.55857 0 0 1 -0.1702,1.5516 c 1.0958,0.1563 1.6876,0.7881 1.675,1.5318 a 7.55188,7.55188 0 0 0 0.8313,-3.0622 z"
     id="path14" />
  <path
     class="cls-3"
     d="m 17.025139,24.8023 -1.3109,0.5304 -0.0172,-1.443 -0.6142,-0.4218 -1.6196,2.3741 0.6083,0.4178 0.9124,-1.3363 6e-4,0.0549 0.0264,1.2775 0.0864,0.0596 1.212,-0.4636 -0.0324,0.047 -0.8715,1.2781 0.6076,0.4179 1.6203,-2.3741 z"
     id="path15" />
  <path
     class="cls-3"
     d="m 24.536639,28.4346 a 1.57715,1.57715 0 0 0 0.2969,-1.1304 l -0.0244,-0.2265 -1.2324,0.1377 -0.1834,0.6404 0.6868,-0.0768 -0.0072,0.0258 a 0.70137,0.70137 0 0 1 -0.5885,0.5 0.82831,0.82831 0 0 1 -0.6208,-0.1762 0.83936,0.83936 0 0 1 -0.3048,-0.5668 0.82664,0.82664 0 0 1 0.7402,-0.9212 0.84229,0.84229 0 0 1 0.6234,0.1788 l 0.033,0.0265 0.4183,-0.5874 -0.033,-0.0232 a 1.63193,1.63193 0 0 0 -0.9394,-0.2913 1.64528,1.64528 0 0 0 -1.2502,0.5781 1.49437,1.49437 0 0 0 -0.3371,1.1244 1.52351,1.52351 0 0 0 1.4012,1.3503 1.71054,1.71054 0 0 0 0.3444,-0.004 1.40781,1.40781 0 0 0 0.977,-0.5576"
     id="path16" />
  <path
     class="cls-3"
     d="m 26.279839,25.1864 -0.6871,0.2886 1.1062,2.6544 0.6871,-0.2885 z"
     id="path17" />
  <path
     class="cls-3"
     d="m 30.251839,25.1089 a 0.988,0.988 0 0 1 -0.3397,0.4391 0.82628,0.82628 0 1 1 -0.9949,-1.3179 0.98761,0.98761 0 0 1 0.5133,-0.2099 l 0.0725,-0.006 -0.4426,-0.5867 -0.0244,0.0053 a 1.40143,1.40143 0 0 0 -0.5694,0.2682 1.59249,1.59249 0 0 0 -0.6261,1.0331 1.52457,1.52457 0 0 0 1.2799,1.7138 l 0.0158,0.002 a 1.56536,1.56536 0 0 0 1.1618,-0.3245 1.42244,1.42244 0 0 0 0.4136,-0.4741 l 0.0113,-0.0226 -0.4454,-0.5893 -0.025,0.0688 z"
     id="path18" />
  <path
     class="cls-3"
     d="m 34.385639,20.1647 a 1.53,1.53 0 0 0 -0.9249,-1.9754 1.47433,1.47433 0 0 0 -1.1585,0.0907 1.57081,1.57081 0 0 0 -0.6557,0.647 1.67184,1.67184 0 0 0 -0.1188,0.2735 1.54921,1.54921 0 0 0 0.9329,1.9748 1.46379,1.46379 0 0 0 1.1545,-0.0927 1.59351,1.59351 0 0 0 0.7705,-0.9172 m -1.4197,0.3331 a 0.84047,0.84047 0 0 1 -0.2672,-0.0444 0.8081,0.8081 0 0 1 -0.5106,-1.0304 0.81768,0.81768 0 0 1 0.4104,-0.4755 0.81822,0.81822 0 0 1 1.0872,0.3669 0.82233,0.82233 0 0 1 0.0396,0.6271 0.97543,0.97543 0 0 1 -0.0594,0.1371 0.792,0.792 0 0 1 -0.6993,0.4192"
     id="path19" />
  <path
     class="cls-3"
     d="m 23.066139,4.3846 a 1.47539,1.47539 0 0 0 -0.5053,-1.045 1.57877,1.57877 0 0 0 -1.049,-0.3894 c -0.027,0 -0.0547,7e-4 -0.0824,0.002 a 1.52611,1.52611 0 0 0 -1.497,1.5834 1.48633,1.48633 0 0 0 0.5054,1.0509 1.56422,1.56422 0 0 0 0.8392,0.3775 1.64039,1.64039 0 0 0 0.2968,0.0119 1.5444,1.5444 0 0 0 1.4923,-1.5906 m -0.9619,0.6244 a 0.80453,0.80453 0 0 1 -0.5647,0.2662 l -0.0409,0.0014 a 0.81324,0.81324 0 0 1 -0.0369,-1.6258 0.92135,0.92135 0 0 1 0.1484,0.006 0.799,0.799 0 0 1 0.6993,0.7675 0.81181,0.81181 0 0 1 -0.2058,0.5854"
     id="path20" />
  <path
     class="cls-3"
     d="m 25.183239,6.3918 0.855,0.2622 -0.4124,-1.2165 0.0212,-0.0026 a 0.92,0.92 0 0 0 0.7976,-0.6311 c 0.188,-0.6185 -0.128,-1.0728 -0.9151,-1.3145 l -0.7817,-0.2398 -0.8379,2.7522 0.7125,0.2186 0.2402,-0.7894 0.3199,0.9615 z m 0.0811,-2.2807 0.1194,0.0364 a 0.54488,0.54488 0 0 1 0.3418,0.2258 0.28415,0.28415 0 0 1 0.0112,0.2252 0.33287,0.33287 0 0 1 -0.1986,0.2251 0.42021,0.42021 0 0 1 -0.1563,0.0279 0.68129,0.68129 0 0 1 -0.1947,-0.0312 l -0.1266,-0.039 z"
     id="path21" />
  <path
     class="cls-3"
     d="m 28.316939,8.056 0.378,-0.5696 -0.7838,-0.5238 0.0099,-0.0145 1.2027,-1.8112 -0.6201,-0.4146 -1.59,2.3953 z"
     id="path22" />
  <path
     class="cls-3"
     d="m 31.901139,7.6156 -2.9311,0.9317 0.4862,0.6086 0.4169,-0.1437 0.008,0.0099 0.6537,0.8186 -0.0059,0.0105 -0.2236,0.3669 0.5007,0.6258 1.5411,-2.6707 -0.4453,-0.5576 z m -1.0305,1.6774 -0.3899,-0.4874 0.8689,-0.2967 -0.479,0.7848 z"
     id="path23" />
  <path
     class="cls-3"
     d="m 19.427839,25.7817 -1.7252,2.5549 0.7573,0.1748 0.2389,-0.3722 1.0305,0.2378 0.0013,0.0125 0.0514,0.4265 0.7792,0.1801 -0.4401,-3.0541 -0.694,-0.1603 z m -0.38,1.8172 0.0138,-0.0212 0.4843,-0.7523 0.1088,0.9138 z"
     id="path24" />
  <path
     class="cls-3"
     d="m 32.848539,11.5664 -0.031,0.045 -1.0727,1.5775 0.2322,0.6582 2.7016,-0.9622 -0.2488,-0.7046 -1.4923,0.5318 1.1077,-1.6205 -0.2342,-0.6616 -2.7015,0.9629 0.2493,0.704 z"
     id="path25" />
  <path
     class="cls-3"
     d="m 34.986039,15.559 -0.0079,-0.8835 -2.8672,0.0265 0.0079,0.8914 a 1.36923,1.36923 0 0 0 1.2522,1.496 c 0.0653,0.0059 0.1339,0.0072 0.1992,0.0079 a 1.45346,1.45346 0 0 0 0.9599,-0.349 1.51723,1.51723 0 0 0 0.4565,-1.1893 m -1.423,0.7907 h -0.0072 a 0.74952,0.74952 0 0 1 -0.5634,-0.2159 0.75813,0.75813 0 0 1 -0.192,-0.5172 l -0.002,-0.1742 1.5042,-0.0139 0.0013,0.1735 a 0.70342,0.70342 0 0 1 -0.7415,0.7477"
     id="path26" />
  <path
     class="cls-2"
     d="M 22.049539,1.2324 A 14.62758,14.62758 0 0 0 11.957139,5.27 V 6.0978 A 14.17625,14.17625 0 1 1 8.7627393,20.8051 l -0.5172,0.3053 A 14.72393,14.72393 0 1 0 22.049539,1.2331"
     id="path27" />
</svg>
